<svg width="582" height="178" xmlns="http://www.w3.org/2000/svg">
 <!-- Created with Method Draw - http://github.com/duopixel/Method-Draw/ -->

 <g>
  <title>background</title>
  <rect fill="none" id="canvas_background" height="180" width="584" y="-1" x="-1"/>
  <g display="none" overflow="visible" y="0" x="0" height="100%" width="100%" id="canvasGrid">
   <rect fill="url(#gridpattern)" stroke-width="0" y="1" x="1" height="400" width="580"/>
  </g>
 </g>
 <g>
  <title>Layer 1</title>
  <g stroke="null" opacity="0.35" id="svg_11">
   <g stroke="null" transform="matrix(1.1407544467581694,0,0,1.1407544467581694,-4181.485721339381,-3177.505209144702) " id="svg_5">
    <path stroke="null" id="svg_6" d="m3682.25464,2817.629977c-0.137,1.09 -1.906,3.742 -5.304,7.956c-0.408,0.816 -1.02,1.157 -1.836,1.02c-1.09,0 -2.11,-0.408 -3.06,-1.224c-0.408,-0.408 -1.224,-1.699 -2.448,-3.876c-0.137,-2.174 -0.204,-3.535 -0.204,-4.08c0.408,-3.943 2.244,-5.712 5.508,-5.304c0.816,0.137 1.836,1.294 3.06,3.468c0.134,0.137 0.306,0.102 0.51,-0.102c0.204,-0.204 0.44,-0.306 0.714,-0.306c0.408,0 1.02,0.306 1.836,0.918c0.816,0.612 1.224,1.122 1.224,1.53zm137.7,-6.528c-1.361,0.816 -2.11,1.769 -2.244,2.856c0,0.545 0.134,1.09 0.408,1.632c-0.682,0.274 -1.565,0.886 -2.652,1.836c0,-0.134 -0.07,-0.338 -0.204,-0.612c-2.722,1.632 -4.08,3.946 -4.08,6.936c1.087,-0.95 2.652,-2.515 4.692,-4.692l-0.204,1.02l1.224,0.204c0.408,-0.134 0.679,-0.204 0.816,-0.204c-1.498,0 -2.926,1.565 -4.284,4.692c0,0.274 0.067,0.612 0.204,1.02c-2.856,4.896 -4.284,7.889 -4.284,8.976c0.408,0.137 0.816,0 1.224,-0.408c0.408,-1.087 2.244,-3.535 5.508,-7.344c-1.498,2.448 -3.06,5.17 -4.692,8.16c-3.13,6.12 -4.762,9.929 -4.896,11.424c0,0.274 -0.239,0.851 -0.714,1.734c-0.479,0.886 -0.784,1.6 -0.918,2.142c0,0.545 0.134,1.294 0.408,2.244l-0.612,-0.408c0.271,0.274 0.408,0.612 0.408,1.02c0,0.274 -0.204,0.612 -0.612,1.02l0,0.408c-0.137,0.137 -0.07,0.274 0.204,0.408l0.816,-1.428c0.679,1.09 0.95,1.836 0.816,2.244c0,0.816 -1.361,3.468 -4.08,7.956c-0.137,0 -0.204,0.408 -0.204,1.224l-0.816,-0.612l0,0.204c0,0.137 0.067,0.274 0.204,0.408c0.134,0.137 0.204,0.408 0.204,0.816c-0.137,0.408 -1.02,2.652 -2.652,6.732c-0.682,-0.134 -1.224,-0.134 -1.632,0c-0.137,0.545 0,0.816 0.408,0.816c0.271,0.137 0.612,0 1.02,-0.408c-0.274,0.545 -0.816,1.361 -1.632,2.448c0.542,0.545 1.087,1.294 1.632,2.244l-11.628,26.112c-5.986,13.738 -11.832,23.256 -17.544,28.561c0,0.679 -0.749,1.969 -2.244,3.875c-0.682,0.271 -1.632,0.883 -2.856,1.836c-0.274,0 -0.647,-0.238 -1.122,-0.714c-0.478,-0.478 -0.851,-0.714 -1.122,-0.714c-0.274,0 -0.545,0.134 -0.816,0.408c-0.274,0.271 -0.545,0.408 -0.816,0.408c-0.816,0 -1.836,-1.157 -3.06,-3.469c-0.682,0.271 -1.02,0.746 -1.02,1.429c0.134,0.679 0.134,1.224 0,1.632c-0.137,-0.408 -1.09,-0.545 -2.856,-0.408c0.271,0.816 0.883,2.107 1.836,3.876c-6.936,-2.993 -10.2,-4.488 -9.792,-4.488c-0.274,0 -0.408,0.135 -0.408,0.408c0,0.271 -0.204,0.408 -0.612,0.408c0.134,0 0.067,-0.204 -0.204,-0.612c-3.946,-1.224 -6.802,-1.836 -8.568,-1.836c-1.224,-0.545 -2.11,-1.766 -2.652,-3.672c-0.137,-0.271 -0.545,-0.541 -1.224,-0.816c-2.448,-4.621 -4.217,-7.002 -5.304,-7.14c0,-0.134 0.134,-0.338 0.408,-0.612l0.408,-0.612c0.271,-1.632 -0.204,-2.515 -1.428,-2.652c-0.953,-0.134 -2.04,1.09 -3.264,3.672c0.134,0.274 0.204,0.682 0.204,1.224c-0.274,0 -2.177,2.04 -5.712,6.12c-3.538,4.08 -5.849,6.051 -6.936,5.917c0.408,0.134 -0.478,-0.408 -2.652,-1.633c-0.545,0 -1.294,-0.137 -2.244,-0.407c-0.953,-0.274 -1.702,-0.408 -2.244,-0.408c-0.816,0.815 -1.361,1.97 -1.632,3.468c-0.408,0.679 -1.361,0.883 -2.856,0.612c-3.809,-0.274 -6.257,-2.381 -7.344,-6.324l-3.672,-4.08c-1.498,-2.719 -3.06,-5.371 -4.692,-7.956c-1.769,-3.535 -2.926,-6.391 -3.468,-8.568c-2.585,-10.471 -4.421,-21.487 -5.508,-33.048l0.204,-2.448c0,-0.95 -0.479,-1.699 -1.428,-2.244c-0.408,8.705 0.338,16.661 2.244,23.868c-1.09,-0.134 -1.702,-0.542 -1.836,-1.224c-0.545,-1.766 -1.02,-3.943 -1.428,-6.528c-1.498,-8.432 -1.702,-17.679 -0.612,-27.745c0.271,-2.99 1.291,-5.642 3.06,-7.956c-0.137,0.274 -0.137,-0.067 0,-1.02c0.271,0.408 0.542,0.612 0.816,0.612l0.816,-0.408c-0.408,-0.271 -0.816,-0.95 -1.224,-2.04c0.542,0 0.95,-0.134 1.224,-0.408c0.271,0.816 0.679,1.906 1.224,3.264l0.816,0.204c0.271,0.274 0.475,-0.271 0.612,-1.632c-1.224,-1.224 -1.769,-2.311 -1.632,-3.264c0.134,0 0.306,-0.134 0.51,-0.408c0.204,-0.271 0.44,-0.338 0.714,-0.204c0.542,0 1.224,0.953 2.04,2.856c0.134,-0.134 0.204,-0.408 0.204,-0.816c0.271,-2.04 -0.274,-3.943 -1.632,-5.712c-0.137,0 -0.306,0.035 -0.51,0.102c-0.204,0.07 -0.443,0.102 -0.714,0.102c-0.408,0 -1.02,-0.848 -1.836,-2.55c-0.816,-1.699 -1.157,-2.821 -1.02,-3.366c0,-0.271 0.102,-0.51 0.306,-0.714s0.306,-0.373 0.306,-0.51l1.224,0c0.95,0.545 1.632,1.498 2.04,2.856c0.134,0.682 0,1.702 -0.408,3.06c0.134,0.408 0.475,0.816 1.02,1.224c0.271,-0.679 0.746,-0.95 1.428,-0.816c0.408,0.137 1.087,0.749 2.04,1.836c0.134,-0.679 0.475,-1.699 1.02,-3.06c1.087,1.09 1.836,1.973 2.244,2.652c0.679,0.137 1.154,0.137 1.428,0c-2.722,-4.759 -4.013,-7.819 -3.876,-9.18c0.134,-0.95 0.883,-2.244 2.244,-3.876c1.358,-1.632 2.515,-2.378 3.468,-2.244c0.679,0 1.562,0.612 2.652,1.836c1.087,1.224 1.562,2.177 1.428,2.856c0,0.545 -0.306,1.428 -0.918,2.652c-0.612,1.224 -0.918,2.11 -0.918,2.652c0.134,0.274 0.542,1.157 1.224,2.652c3.264,-0.679 4.896,-1.428 4.896,-2.244c0,1.09 -0.274,-0.067 -0.816,-3.468c0.134,0 0.373,-0.067 0.714,-0.204c0.338,-0.134 0.644,-0.134 0.918,0c1.358,0.137 2.244,2.789 2.652,7.956c-0.545,13.056 0.542,27.406 3.264,43.044c0.271,0.408 0.679,1.157 1.224,2.244c0.271,0 0.475,-0.134 0.612,-0.408c0,-0.134 -0.137,-0.338 -0.408,-0.612c1.224,-1.495 1.699,-2.515 1.428,-3.06l0.816,1.02c0.542,-0.679 0.883,-1.224 1.02,-1.632c-0.137,-0.271 -0.274,-0.408 -0.408,-0.408c0.408,-0.408 0.612,-0.883 0.612,-1.428c0.542,-0.816 1.632,-2.652 3.264,-5.508c-0.137,0.274 -0.545,-0.067 -1.224,-1.02c0.542,0.137 0.883,0.274 1.02,0.408c0.271,-0.271 0.679,-0.746 1.224,-1.428c0,-0.134 -0.07,-0.338 -0.204,-0.612c0.816,-1.087 1.358,-2.311 1.632,-3.672c1.358,-1.495 2.174,-2.786 2.448,-3.876c0,0.137 0.134,0.274 0.408,0.408c0.816,-0.542 1.358,-1.495 1.632,-2.856c0,-0.542 0.067,-1.428 0.204,-2.652c0.816,-0.271 1.326,-1.052 1.53,-2.346c0.204,-1.291 0.985,-2.346 2.346,-3.162c1.358,-0.816 2.244,-1.428 2.652,-1.836c0.134,-4.351 1.02,-8.906 2.652,-13.668c0.408,-1.224 1.428,-2.582 3.06,-4.08c1.632,-1.495 2.99,-2.174 4.08,-2.04c1.224,0.137 2.378,1.294 3.468,3.468c0.408,-0.271 1.087,-0.338 2.04,-0.204c-0.274,-0.134 0.067,-0.408 1.02,-0.816l2.04,-2.856l3.06,1.428c0.408,0 1.087,-0.134 2.04,-0.408c1.224,2.722 1.766,6.461 1.632,11.22l-0.204,11.22c-0.137,-0.408 -0.274,0 -0.408,1.224c0.134,0.274 0.271,0.408 0.408,0.408c0.408,-0.408 0.679,-0.95 0.816,-1.632c0,-0.408 -0.137,-1.087 -0.408,-2.04c0.271,-0.271 0.679,-0.338 1.224,-0.204c0,-0.679 0.134,-1.632 0.408,-2.856c0.271,-1.224 0.475,-2.174 0.612,-2.856c0,0.545 0.204,1.294 0.612,2.244c0.134,-0.408 0.612,-1.632 1.428,-3.672c0,0.137 0.067,0.204 0.204,0.204c0.271,0.137 0.542,0.137 0.816,0l-2.856,25.296c0,-0.816 -0.137,-2.107 -0.408,-3.876c-0.408,0.545 -0.682,1.361 -0.816,2.448c-0.137,1.361 0,2.993 0.408,4.896c0.679,-1.632 1.02,-2.652 1.02,-3.06l-0.612,16.932c-0.137,2.177 -0.274,5.441 -0.408,9.792c4.896,-5.712 9.859,-14.347 14.892,-25.908c7.07,-16.046 11.22,-25.226 12.444,-27.54c0.679,-1.358 1.02,-2.515 1.02,-3.468c0.679,-0.134 1.087,-0.408 1.224,-0.816c0,-0.134 -0.07,-0.408 -0.204,-0.816c1.632,-2.448 3.672,-6.12 6.12,-11.016c0,0.408 0.338,0.953 1.02,1.632c0.271,0 0.475,0 0.612,0c0.816,-1.224 1.97,-2.856 3.468,-4.896c-0.953,3.264 -2.652,6.732 -5.1,10.404l0.408,1.02c-1.09,0.274 -1.973,1.224 -2.652,2.856c-0.274,0.682 -0.408,1.294 -0.408,1.836c-0.137,0.545 0,1.02 0.408,1.428c-0.137,0 -0.408,-0.271 -0.816,-0.816c-0.137,0.545 -0.682,1.294 -1.632,2.244l0,1.632c1.632,-0.679 2.378,-1.087 2.244,-1.224c-0.545,-0.408 -0.816,-0.746 -0.816,-1.02l0.816,0.204c-0.274,0 0.271,-0.204 1.632,-0.612c-0.408,-0.542 -0.478,-0.816 -0.204,-0.816l0.204,-0.204l0.204,-0.816c0.134,-0.271 1.699,-2.856 4.692,-7.752c0.408,-0.95 0.338,-1.495 -0.204,-1.632c0.408,-0.134 0.883,-0.612 1.428,-1.428c0.408,-1.495 1.291,-3.672 2.652,-6.528c1.632,-1.495 3.194,-3.264 4.692,-5.304c0.408,-0.408 1.766,-2.107 4.08,-5.1l2.04,-2.448c-0.137,0.682 -0.137,1.09 0,1.224c0.542,-0.542 1.428,-1.358 2.652,-2.448l1.224,-2.448c-0.137,0.137 -0.07,0.341 0.204,0.612c0.408,-0.542 0.816,-1.154 1.224,-1.836c0,1.632 -0.545,3.197 -1.632,4.692c0.134,0.137 0.338,0.204 0.612,0.204c0.408,-0.408 1.495,-1.495 3.264,-3.264c-5.849,7.752 -11.086,15.233 -15.708,22.44c-0.408,0.816 -0.545,1.632 -0.408,2.448l13.056,-17.544c0.542,-0.816 1.154,-1.699 1.836,-2.652c-0.274,0 -0.204,0.274 0.204,0.816c1.766,-2.582 2.582,-4.284 2.448,-5.1c0.134,0 0.408,0.274 0.816,0.816c0.408,-0.271 0.95,-0.612 1.632,-1.02c0.134,-0.542 0.542,-1.154 1.224,-1.836l0,1.224zm-121.176,-7.344c-0.137,1.906 -3.197,4.354 -9.18,7.344c-1.498,-1.358 -2.856,-2.107 -4.08,-2.244l-0.612,0c0,0.137 -0.137,0.204 -0.408,0.204c-3.809,-0.408 -5.374,-3.806 -4.692,-10.2c0.408,-3.535 1.766,-5.167 4.08,-4.896c0.816,0.137 1.428,0.341 1.836,0.612c2.99,-4.351 5.234,-6.458 6.732,-6.324c1.903,0.274 3.331,1.498 4.284,3.672l1.836,5.916l-0.204,3.264c0,0.137 0.067,0.545 0.204,1.224c0.134,0.682 0.204,1.157 0.204,1.428zm-11.832,21.216c-0.137,1.224 -1.157,1.769 -3.06,1.632c-1.09,-0.134 -2.04,-1.087 -2.856,-2.856c0.679,-0.816 1.495,-1.154 2.448,-1.02c2.448,0.137 3.602,0.886 3.468,2.244zm-4.284,27.336l-0.612,0l-0.612,0.816l0.612,0.408l0.612,-1.224zm0.204,17.952c0,-1.766 0.067,-4.147 0.204,-7.14c-0.274,-0.408 -0.682,-1.02 -1.224,-1.836l-0.204,1.836c0,0.953 0.271,1.973 0.816,3.06c-0.682,1.769 -0.545,3.13 0.408,4.08zm0.204,-22.644l-0.612,0l-0.408,1.02l0.612,0.204l0.408,-1.224zm-0.204,2.448l0,-0.816l-0.408,0l-0.204,0.816l0.612,0zm4.896,15.708l-0.408,-0.204l-0.408,0.816l0.408,0.408l0.408,-1.02zm6.12,65.28l-1.02,-0.204l0,-0.611l1.02,0.203l0,0.612zm3.264,-72.012l0.204,-2.856c-0.274,-0.134 -0.545,-0.338 -0.816,-0.612c0,0.408 -0.137,1.565 -0.408,3.468l-0.408,0.204c0,0.274 0,0.612 0,1.02c0.134,-0.271 0.612,-0.679 1.428,-1.224zm4.284,-34.884c-2.993,1.361 -4.217,2.04 -3.672,2.04c-1.499,-0.134 -2.11,-1.428 -1.836,-3.876c0.134,-1.766 0.816,-2.582 2.04,-2.448c0.95,0.137 2.174,0.816 3.672,2.04l-0.204,2.244zm-3.264,19.992l0,-0.816l-0.612,-0.204l0,0.816l0.612,0.204zm22.644,-37.128c-0.545,0.545 -0.886,0.816 -1.02,0.816c0.408,0 -0.749,-0.612 -3.468,-1.836c0,-0.542 0.134,-1.632 0.408,-3.264c1.087,0.408 2.515,1.02 4.284,1.836l-0.204,2.448zm3.672,50.388l-0.408,-0.204l-0.408,1.02l0.408,0.204l0.408,-1.02zm11.016,-15.708c0.271,-2.174 0.271,-3.398 0,-3.672c-1.09,0.953 -1.702,1.769 -1.836,2.448c0,0.408 0.067,0.75 0.204,1.02l0,0.408c0.134,0 0.408,-0.032 0.816,-0.102c0.408,-0.067 0.678,-0.102 0.816,-0.102zm12.648,64.872l1.632,-26.52c0,0.408 -0.102,1.122 -0.306,2.142s-0.376,1.734 -0.51,2.142l-0.816,22.236zm2.244,-28.356l-0.612,0l-0.408,1.02l0.612,0.204l0.408,-1.224zm0.204,-1.224l-0.612,0l-0.408,1.02l0.408,0.204l0.612,-1.224zm0.408,-4.08c-0.274,-1.358 -0.341,-2.311 -0.204,-2.856c-0.408,3.13 -0.545,4.966 -0.408,5.508c0,-0.408 0.204,-1.291 0.612,-2.652zm0.408,-5.712l0.408,-4.08c-0.816,1.361 -1.224,2.244 -1.224,2.652c0.134,0.274 0.408,0.749 0.816,1.428zm0.816,-5.508l-0.612,-0.204l-0.408,0.612l0.612,0.408l0.408,-0.816zm0.204,34.476l0.408,-3.06l-0.612,0l-0.408,3.06l0.612,0zm0.204,2.244l0.204,-1.224l-0.612,0l-0.204,1.224l0.612,0zm0.204,3.672l-0.408,1.428l-0.408,-0.204l0.408,-1.224l0.408,0zm0,-10.608l0.204,-2.856l-0.612,0l-0.204,2.856l0.612,0zm0.204,-6.324l0.204,-1.224l-0.612,0l-0.204,1.224l0.612,0zm0.612,-15.504l0.204,-2.652l-0.612,0l-0.204,2.448l0.612,0.204zm19.584,6.528c-0.408,0 -0.682,-0.204 -0.816,-0.612c0.679,-1.632 1.087,-3.264 1.224,-4.896c-0.816,1.361 -1.836,3.264 -3.06,5.712c0.271,0.816 0.338,1.428 0.204,1.836c0,0.545 -0.341,1.09 -1.02,1.632l-0.204,2.244c0.816,-0.408 1.597,-1.46 2.346,-3.162c0.746,-1.699 1.189,-2.617 1.326,-2.754zm-0.816,56.305c-0.408,0.545 -1.02,0.745 -1.836,0.611c0.134,0.134 0.204,0.408 0.204,0.816c1.087,-0.274 1.632,-0.749 1.632,-1.427zm1.428,-1.225l-1.02,1.02l-0.204,-0.408l0.816,-1.02l0.408,0.408zm6.324,-69.156c0,-0.271 -0.07,-0.542 -0.204,-0.816c-0.137,-0.271 -0.204,-0.475 -0.204,-0.612c-0.274,0 -0.478,0.137 -0.612,0.408c0.134,0.816 -0.274,1.428 -1.224,1.836c-0.408,1.906 -1.361,4.15 -2.856,6.732c0,-1.087 -0.07,-1.903 -0.204,-2.448c0,0.408 -0.172,0.918 -0.51,1.53c-0.341,0.612 -0.51,1.122 -0.51,1.53l1.02,-0.408c0.271,0.274 0.408,0.612 0.408,1.02c3.127,-5.438 4.759,-8.364 4.896,-8.772zm-4.08,4.08l0.204,-1.02l-0.408,0.204c-0.274,0.137 -0.408,0.274 -0.408,0.408c0,0.274 0.204,0.408 0.612,0.408zm5.508,-11.832l-0.408,-0.204l-0.612,1.836l0.612,0l0.408,-1.632zm2.04,0.816c0,-0.134 -0.035,-0.373 -0.102,-0.714c-0.07,-0.338 -0.102,-0.577 -0.102,-0.714c-0.274,0.408 -0.682,0.953 -1.224,1.632c0.408,-0.271 0.883,-0.338 1.428,-0.204zm0.612,-4.284l-0.612,0l-0.612,1.632l0.612,0.204l0.612,-1.836zm11.832,-8.772l-0.408,0l-0.408,1.02l0.204,0.408l0.612,-1.428zm2.244,-14.688l-0.204,-0.612l-1.428,1.224l0.408,0.204l1.224,-0.816zm-0.612,47.124l-0.408,-0.408l-0.408,0.204l0.408,0.612l0.408,-0.408zm2.244,-5.916c-0.682,0.953 -1.157,1.632 -1.428,2.04l0.612,0c0.408,-0.95 0.679,-1.632 0.816,-2.04zm3.264,-14.688l-0.612,-0.204l-0.612,2.244l0.408,0l0.816,-2.04zm0.204,-47.532l-0.816,0.816l-0.408,-0.204l0.612,-1.02l0.612,0.408zm1.02,46.716l0,-1.428l-0.612,0l0,1.428l0.612,0zm2.652,5.508l-1.02,1.428l-0.408,-0.204l1.02,-1.224l0.408,0zm-0.204,-7.956l-1.02,0.204l0,-0.408l0.816,-0.408l0.204,0.612zm3.06,-47.124c-0.682,1.498 -1.294,2.652 -1.836,3.468c-0.137,-0.271 -0.204,-0.612 -0.204,-1.02c0,-0.408 0.679,-1.224 2.04,-2.448zm0.816,4.692l-0.612,0l0,-1.02l0.612,0l0,1.02zm2.04,-7.14l-1.836,2.04l-0.408,-0.408l1.836,-2.04l0.408,0.408zm-1.02,8.16l-1.224,1.02c0,-0.542 0.338,-1.291 1.02,-2.244c0,0.545 0.067,0.953 0.204,1.224z" fill="#6E7171"/>
    <path stroke="null" id="svg_7" d="m3903.18564,2870.873977c0,2.448 -1.021,6.053 -3.06,10.812c-0.816,2.314 -1.973,5.986 -3.468,11.016c-1.632,1.769 -3.946,4.762 -6.936,8.976l1.02,-2.04c0.816,-1.495 1.087,-2.378 0.816,-2.652c-1.09,1.498 -2.585,3.946 -4.488,7.344c-0.816,0.682 -2.04,1.973 -3.672,3.876c-0.816,1.499 -1.973,3.672 -3.468,6.528c-3.539,5.033 -7.481,9.113 -11.832,12.24c-7.481,5.578 -12.444,8.364 -14.892,8.364c-0.408,0 -1.02,-0.137 -1.836,-0.408c-0.816,-0.274 -1.361,-0.408 -1.632,-0.408c-1.09,0 -2.62,0.236 -4.59,0.714c-1.973,0.476 -3.503,0.715 -4.59,0.715c-4.08,0 -8.434,-2.178 -13.056,-6.528l-4.08,-0.816c-0.137,0.408 -0.204,0.953 -0.204,1.633c0,0.682 0.067,1.498 0.204,2.447c-1.361,-1.766 -3.197,-4.08 -5.508,-6.936c-0.137,-0.679 -0.478,-1.903 -1.02,-3.672c-0.408,-0.271 -0.816,-0.542 -1.224,-0.816c-0.274,-1.766 -0.682,-4.488 -1.224,-8.16c0.679,-0.816 1.02,-1.428 1.02,-1.836c-1.361,-3.127 -2.244,-5.779 -2.652,-7.956c0.408,-0.408 0.408,-4.08 0,-11.016c1.224,-9.926 3.739,-19.718 7.548,-29.376c1.495,-4.214 4.418,-8.635 8.772,-13.26c4.622,-5.438 8.772,-8.568 12.444,-9.384c0.542,0 3.127,-1.087 7.752,-3.264c-9.384,3.809 -16.865,9.725 -22.44,17.748c-0.137,0.137 0,0.408 0.408,0.816l1.02,-0.816c-1.769,1.906 -3.197,4.217 -4.284,6.936l0.816,0.408c4.214,-5.846 11.083,-12.036 20.604,-18.564c-0.408,0 -1.565,0.341 -3.468,1.02c8.702,-5.167 15.434,-7.682 20.196,-7.548c-0.137,0 -0.408,0.204 -0.816,0.612c0.408,0.274 0.883,0.408 1.428,0.408c0.679,0 1.699,-0.134 3.06,-0.408c1.358,-0.271 2.378,-0.408 3.06,-0.408c0.408,0 1.326,0.478 2.754,1.428c1.428,0.953 2.276,1.428 2.55,1.428c0.542,0 0.781,-0.102 0.714,-0.306c-0.07,-0.204 0.032,-0.306 0.306,-0.306c0.408,0.137 0.985,0.581 1.734,1.326c0.746,0.749 2.754,2.958 6.018,6.63c0.542,1.224 1.903,2.856 4.08,4.896l0.816,-0.816c-0.953,-0.408 -1.326,-0.95 -1.122,-1.632c0.204,-0.679 0.032,-1.224 -0.51,-1.632c2.174,0 3.806,0.478 4.896,1.428c0.816,-0.95 1.224,-1.562 1.224,-1.836c0.542,1.498 1.632,3.06 3.264,4.692c0.95,1.09 2.378,4.558 4.284,10.404c0,0.545 0.067,1.428 0.204,2.652c0.271,0.545 0.883,1.09 1.836,1.632c0.816,1.223 1.224,2.447 1.224,3.671zm-69.36,-21.624l-2.652,2.856l-0.204,-0.612l2.448,-2.448l0.408,0.204zm3.264,-2.04l-2.652,2.04l-0.204,-0.816l2.448,-1.836l0.408,0.612zm32.436,19.584c-1.361,-2.04 -2.177,-3.602 -2.448,-4.692c-1.769,1.224 -4.625,3.538 -8.568,6.936c0.134,-0.816 0.679,-1.836 1.632,-3.06c-6.257,7.752 -10.812,16.39 -13.668,25.908c-0.545,-0.816 -0.886,-1.224 -1.02,-1.224c-0.953,0 -1.871,1.632 -2.754,4.896c-0.886,3.264 -1.326,5.578 -1.326,6.936c0,2.722 0.612,6.257 1.836,10.608c5.438,-1.495 10.675,-5.508 15.708,-12.036c5.03,-6.528 7.478,-12.444 7.344,-17.748c0.542,0.274 0.95,-0.134 1.224,-1.224l0.612,-1.428c-1.09,-0.408 -2.244,-0.883 -3.468,-1.428c0.134,-0.679 0.204,-1.224 0.204,-1.632c0,-1.358 -2.177,-2.582 -6.528,-3.672l5.1,-0.204c0.679,0.274 1.632,0.886 2.856,1.836c0.134,-0.408 0.338,-0.883 0.612,-1.428c-0.816,0 -1.294,-0.067 -1.428,-0.204c0.679,-0.679 0.95,-1.224 0.816,-1.632c-0.545,-0.408 -1.294,-0.95 -2.244,-1.632c2.04,-0.679 3.398,-1.562 4.08,-2.652c-0.408,-0.542 -0.953,-1.154 -1.632,-1.836c0.408,0 0.95,0.102 1.632,0.306c0.679,0.204 1.154,0.306 1.428,0.306zm-18.156,-29.784l-1.224,0l0,-0.816l1.224,0l0,0.816zm8.772,0.204c-1.498,0.408 -4.558,1.428 -9.18,3.06l1.836,0c0.816,0.137 3.264,-0.883 7.344,-3.06zm-6.12,-1.224l-1.224,0l0,-0.816l1.224,0l0,0.816zm8.976,43.86l-1.02,0l0,-0.816l1.02,0l0,0.816zm36.312,-33.456l-0.816,0l0,-1.836l0.816,0l0,1.836z" fill="#6E7171"/>
    <path stroke="null" id="svg_8" d="m3899.51164,2823.749977c1.903,-0.816 3.398,-1.428 4.488,-1.836c0.134,1.632 0.204,2.722 0.204,3.264c-2.722,1.09 -3.876,1.632 -3.468,1.632c-0.137,0 -0.478,-0.204 -1.02,-0.612l-0.204,-2.448zm5.304,49.776l0.204,-0.816l-0.204,-2.04c1.495,-3.535 2.856,-5.371 4.08,-5.508c0.95,0 1.836,0.612 2.652,1.836c0.271,0.816 0.678,1.565 1.223,2.244c0.271,-0.134 0.68,-0.204 1.225,-0.204c1.357,0 2.107,1.02 2.244,3.06c0.135,3.946 -0.953,5.916 -3.264,5.916c-0.137,0 -0.205,-0.067 -0.205,-0.204l-0.406,0.204c-0.683,0 -1.566,0.408 -2.653,1.224c-3.538,-2.582 -5.304,-4.147 -5.304,-4.692c0.001,-0.271 0.135,-0.612 0.408,-1.02zm4.284,43.86l-2.244,7.548l0.408,0.204l2.448,-7.752l-0.612,0zm77.928,-65.892c-0.406,-1.632 -0.406,-2.582 0,-2.856c-1.09,-3.943 -1.904,-6.936 -2.447,-8.976c-1.906,-1.495 -3.131,-2.311 -3.672,-2.448c-0.408,0.953 -0.611,1.702 -0.611,2.244l-0.408,0c-1.09,-1.766 -1.973,-2.582 -2.652,-2.448l-2.447,1.428c-0.275,-0.408 -0.479,-0.679 -0.613,-0.816c-2.721,-1.632 -4.488,-2.378 -5.303,-2.244c-0.816,0 -3.266,1.973 -7.346,5.916c-0.682,0 -1.223,-0.271 -1.631,-0.816c0,0.682 -0.137,1.157 -0.408,1.428l-1.225,0.204c-0.273,0 -0.375,-0.102 -0.305,-0.306c0.066,-0.204 -0.035,-0.306 -0.307,-0.306c-0.682,0 -1.361,0.749 -2.039,2.244l0,1.836c0,0.682 -0.139,1.224 -0.408,1.632c1.223,-1.766 2.105,-3.06 2.65,-3.876l0.205,0.408c-5.033,8.842 -9.113,15.574 -12.24,20.196c-0.137,-1.766 -0.137,-4.214 0,-7.344c-0.137,-0.134 -0.203,-0.271 -0.203,-0.408c0.406,-3.672 0.406,-6.732 0,-9.18c-0.139,0 -0.24,0.07 -0.307,0.204c-0.07,0.137 -0.24,0.204 -0.51,0.204c-0.545,0 -0.75,-0.816 -0.613,-2.448l0.408,-2.448c-2.992,-3.264 -5.236,-4.488 -6.73,-3.672c2.719,1.361 4.01,2.448 3.875,3.264c1.088,0.274 1.699,1.157 1.836,2.652c0,0.545 -0.07,0.953 -0.203,1.224c-1.361,-2.719 -2.789,-4.284 -4.285,-4.692c0,0.137 0.066,0.341 0.205,0.612c0.133,0.274 0.203,0.478 0.203,0.612l0.611,-0.204c0.68,0 1.43,0.682 2.244,2.04l-1.631,0.816c-2.855,-3.127 -4.559,-4.759 -5.1,-4.896c0.27,-0.408 0.406,-0.883 0.406,-1.428c-2.313,1.498 -4.486,2.448 -6.527,2.856c-1.498,0.682 -2.584,1.157 -3.264,1.428c-0.137,0.545 -0.203,1.02 -0.203,1.428c-0.547,1.09 -1.295,1.906 -2.244,2.448c-1.225,-0.408 -2.178,-0.679 -2.857,-0.816c0,-0.134 -0.203,-0.067 -0.611,0.204c0.271,0 0.408,0.137 0.408,0.408c-0.682,1.906 -1.09,2.993 -1.225,3.264c0.135,-0.134 0.439,-0.271 0.918,-0.408c0.475,-0.134 0.781,-0.271 0.918,-0.408c0.135,0.137 0.135,0.274 0,0.408c-1.498,1.906 -2.244,3.06 -2.244,3.468c-1.09,0.545 -1.906,1.09 -2.447,1.632l0.816,-0.612c0.408,0.408 0.678,0.75 0.816,1.02c-0.139,0.274 -0.139,0.612 0,1.02c0.541,-1.495 0.949,-2.377 1.223,-2.652c0.271,0.545 0.205,1.02 -0.203,1.428c0.678,-0.134 0.949,0.478 0.816,1.836c0.949,4.217 1.494,6.598 1.631,7.14c0.135,0.816 -0.137,2.722 -0.816,5.712c0.135,-0.134 0.408,0.137 0.816,0.816c-1.09,5.986 -1.836,9.996 -2.244,12.036c-1.77,9.521 -3.061,15.504 -3.875,17.952c-1.498,4.217 -2.244,7.548 -2.244,9.996c0,0.137 -0.102,0.478 -0.307,1.02c-0.203,0.545 -0.307,0.953 -0.307,1.224c0,0.545 0.135,0.816 0.408,0.816l5.713,-17.748l-5.508,21.216c0.949,-3.264 1.699,-5.575 2.244,-6.936c0,0.274 -0.75,3.197 -2.244,8.772c0,-0.271 0.27,-0.475 0.816,-0.612l-2.449,6.12c-0.137,-0.816 0.032,-1.903 0.509,-3.264c0.475,-1.358 0.645,-2.174 0.51,-2.448c-0.953,3.401 -1.498,5.374 -1.631,5.916c0,-0.134 0.067,-0.271 0.204,-0.408c0.134,0.816 -0.682,4.15 -2.448,9.996l-0.407,-0.611c0.134,2.174 -0.07,3.602 -0.612,4.284c0.679,-1.091 1.224,-1.906 1.632,-2.448c0.134,0.408 0.204,0.679 0.204,0.815c-0.137,-1.09 0.271,-2.518 1.224,-4.284l0.408,0.613c0,-0.135 0.067,-0.338 0.204,-0.613c0.134,0.816 0.032,1.767 -0.306,2.856c-0.342,1.087 -0.511,1.836 -0.511,2.244c0.542,-1.498 0.95,-2.519 1.225,-3.06c0.408,0.407 0.611,0.679 0.611,0.815c-0.682,1.766 -1.02,3.061 -1.02,3.876c1.631,-3.264 2.514,-5.033 2.653,-5.304c8.293,-21.895 12.443,-32.911 12.443,-33.048c2.582,-8.293 4.758,-16.045 6.527,-23.256c0.951,0.953 1.428,1.294 1.428,1.02c-4.762,17.952 -7.209,27.132 -7.344,27.54c-3.264,12.24 -6.801,22.032 -10.607,29.376c0.408,-0.274 0.611,-0.204 0.611,0.204l0,1.224c0.543,-1.769 1.291,-3.264 2.244,-4.488c0.271,0.138 0.338,0.275 0.205,0.408c-0.953,2.856 -1.77,4.622 -2.449,5.305c-1.906,3.806 -3.129,6.799 -3.672,8.976c0.816,-1.632 1.428,-2.789 1.836,-3.468c0.135,0 0.135,0.134 0,0.408c0,0.134 0.135,0.204 0.408,0.204c0.271,-0.138 1.496,-2.586 3.672,-7.345c3.398,-7.344 5.168,-11.149 5.305,-11.424c0.133,0.137 0.203,0.408 0.203,0.816c0.135,0.954 -1.428,4.966 -4.691,12.037c0.816,-1.091 1.563,-2.04 2.244,-2.856c0.133,-0.408 0.271,-0.545 0.408,-0.408c0.408,-0.273 0.746,-0.273 1.02,0c-1.225,3.127 -2.039,5.575 -2.447,7.345c1.494,-2.586 3.127,-6.054 4.895,-10.404l-0.611,0.612c0,-0.408 0.408,-1.496 1.225,-3.265c0.271,0.274 0.408,0.479 0.408,0.612c0.27,-2.174 0.611,-3.739 1.02,-4.692c0.408,0.408 0.475,0.749 0.203,1.02c3.127,-5.983 4.693,-10.471 4.693,-13.464c1.357,-2.174 2.039,-3.806 2.039,-4.896c0,-0.408 -0.203,-0.746 -0.611,-1.02c0.541,-0.408 0.883,-0.679 1.02,-0.816c0.135,-1.224 0.408,-1.97 0.816,-2.244l-0.205,-1.428c-0.273,-0.542 -0.203,-1.154 0.205,-1.836l0.611,0.408c0.543,-1.495 0.951,-2.582 1.225,-3.264c-0.545,0.682 -1.02,1.09 -1.428,1.224c0,-1.632 0.408,-2.652 1.223,-3.06c0.271,0.408 0.408,0.816 0.408,1.224c2.582,-9.384 4.555,-14.551 5.916,-15.504l0.613,0.612c0.27,-0.271 0.746,-0.408 1.428,-0.408c0.133,-1.087 0.475,-2.174 1.02,-3.264c0.271,0.137 0.338,0.274 0.203,0.408c-0.273,1.632 -0.682,3.06 -1.223,4.284c-0.275,-0.271 -0.342,-0.408 -0.205,-0.408c0.408,0.408 0.613,0.816 0.613,1.224c0,0.408 -0.24,1.192 -0.715,2.346c-0.479,1.157 -0.58,2.008 -0.307,2.55c1.359,-2.719 2.174,-4.214 2.449,-4.488l0.408,0.408c-0.137,1.632 -0.205,2.856 -0.205,3.672c1.225,-2.582 2.174,-4.214 2.857,-4.896l0.406,0.408c-0.273,0.816 -0.34,1.769 -0.203,2.856c0.949,-1.224 1.633,-2.244 2.039,-3.06c0.68,0.953 1.359,1.428 2.041,1.428c0.541,-0.95 0.883,-1.699 1.02,-2.244c0.271,0.274 0.338,1.157 0.205,2.652c2.039,-3.943 3.264,-6.254 3.672,-6.936c0.133,0.137 0.27,0.478 0.408,1.02c1.766,-3.127 2.785,-4.963 3.059,-5.508c0.135,0.274 0.205,1.02 0.205,2.244l0.611,-0.612c0.271,0.274 0.543,0.408 0.816,0.408c0.271,0 1.563,-1.903 3.875,-5.712c2.313,-3.806 3.604,-5.712 3.877,-5.712l0.816,0l0.408,0l0.408,-1.632c0,-1.087 0.338,-1.632 1.02,-1.632c0.408,0 1.223,0.239 2.447,0.714c1.225,0.478 2.041,0.714 2.449,0.714c0.27,0 0.611,-0.271 1.02,-0.816c-0.137,-0.816 -0.07,-1.291 0.203,-1.428c0.816,1.09 1.225,1.973 1.225,2.652c0.133,-1.632 0.338,-2.856 0.611,-3.672c0.408,0.953 0.68,1.702 0.816,2.244l-0.611,0.816l1.631,0c-0.137,-2.856 -0.07,-4.622 0.205,-5.304c0.814,-1.495 1.291,-2.378 1.428,-2.652c-0.406,-1.632 -0.611,-2.582 -0.611,-2.856zm-78.539,88.944l-0.408,1.225l0.408,0.204l0.407,-1.429l-0.407,0zm2.039,-3.264l-0.407,1.02l0.407,0l0.408,-0.815l-0.408,-0.205zm2.244,-3.672l-0.406,-0.204l2.242,-7.548l0.408,0l-2.244,7.752zm0.816,14.688l-0.816,1.632l0.613,0.204l0.611,-1.632l-0.408,-0.204zm0.408,-106.08c1.496,-1.224 2.719,-1.836 3.672,-1.836c1.225,-0.134 1.902,0.682 2.041,2.448c0.133,2.448 -0.545,3.742 -2.041,3.876c0.543,0 -0.682,-0.746 -3.672,-2.244l0,-2.244zm1.428,104.652l-1.428,3.264l0.816,0l1.225,-3.264l-0.613,0zm-0.203,-21.828l0,-0.816l0.611,0l0,0.816l-0.611,0zm1.019,-14.892l-0.611,0l0.408,-2.04l0.611,0l-0.408,2.04zm0.612,-2.04l-0.408,0l0.816,-5.1l0.613,0l-1.021,5.1zm0.816,34.272l-0.816,0.816l0.408,0.408l0.816,-0.816l-0.408,-0.408zm0.205,-91.188l-0.613,0l0,1.02l0.613,0l0,-1.02zm1.223,-4.896c-0.545,0.545 -1.02,1.361 -1.428,2.448c0.271,-0.95 0.746,-1.562 1.428,-1.836l0.816,0.408c-0.408,-0.542 -0.681,-0.883 -0.816,-1.02zm0.816,12.444l-0.816,1.224l0.613,0.408l0.611,-1.428l-0.408,-0.204zm0.205,16.116l-0.613,0l0,1.02l0.613,0l0,-1.02zm-0.205,-20.808l0,-1.02l0.611,0l0,1.02l-0.611,0zm1.02,16.932l-0.611,0l0.203,1.02l0.613,0l-0.205,-1.02zm0.816,-19.584l-0.408,-0.204l0.408,-0.816l0.408,0.204l-0.408,0.816zm-0.203,-2.04c0.408,-1.224 0.949,-1.97 1.631,-2.244l0.205,1.836c-0.408,-0.271 -1.021,-0.134 -1.836,0.408zm0.408,4.08l-0.408,-0.204l0.408,-0.816l0.203,0l-0.203,1.02zm0.407,49.368l-0.406,-0.204l0.406,-1.02l0.613,0.204l-0.613,1.02zm3.673,9.996l-0.408,-0.204l0.408,-2.04l0.611,0l-0.611,2.244zm2.448,-66.708c-0.137,-1.358 1.02,-2.107 3.469,-2.244c0.949,0 1.766,0.478 2.447,1.428l-5.916,0.816zm0.611,77.316l0,-0.816l0.613,-0.204l0,0.816l-0.613,0.204zm1.021,-1.428l-0.408,-0.204l1.02,-3.06l0.408,0l-1.02,3.264zm1.631,-6.12l0,-0.816l0.611,0l0,0.816l-0.611,0zm0.409,-1.02l-0.203,-0.816l0.611,0l0.203,0.816l-0.611,0zm0.408,-1.632l0,-1.224l0.611,-0.204l0,1.224l-0.611,0.204zm0.611,-1.836l-0.203,-1.224l0.611,0l0.205,1.224l-0.613,0zm0.408,-72.42c0,-0.408 0.439,-0.883 1.326,-1.428c0.883,-0.542 1.529,-0.816 1.938,-0.816c0.271,0 0.51,0.102 0.715,0.306c0.203,0.204 0.373,0.306 0.51,0.306c0.541,-0.95 1.563,-1.428 3.061,-1.428c3.264,-0.134 4.963,1.09 5.1,3.672c0.133,0.545 0,1.906 -0.408,4.08l-12.242,-4.692zm0.612,36.108l-0.611,0l0.205,-2.652l0.611,0l-0.205,2.652zm-0.407,34.068l0,-1.02l0.406,0l0,1.02l-0.406,0zm1.02,-33.864l-0.613,0l0.408,-2.856l0.613,0l-0.408,2.856zm3.672,19.992l-0.408,-0.204l0.203,-0.816l0.613,0.204l-0.408,0.816zm0.408,-1.428l-0.408,0l0.408,-1.836l0.611,0l-0.611,1.836zm0.611,-3.672l-0.408,-0.204l0.613,-1.428l0.611,0l-0.816,1.632zm1.02,-1.836l-0.408,0.204l0,-1.836l0.613,-0.204l-0.205,1.836zm0.408,-28.968l-0.611,-0.204l0.408,-1.02l0.611,0l-0.408,1.224zm0,3.264l0,-1.224l0.613,0l0,1.224l-0.613,0zm0.816,-2.04l-0.408,0l0,-2.244l0.611,0l-0.203,2.244zm2.245,21.828l-0.408,1.836l0.408,0.204l0.611,-1.836l-0.611,-0.204zm3.06,-27.132l-0.613,0l0.205,0.816l0.611,0l-0.203,-0.816zm7.344,-7.14l-0.408,1.02l0.408,0.204l0.408,-1.224l-0.408,0zm10.607,27.948l-1.225,1.02l0.408,0.408l1.225,-1.224l-0.408,-0.204zm3.061,-4.08l-0.408,-0.204l0.408,-0.816l0.408,0l-0.408,1.02zm1.631,-39.168c-0.406,0.545 -0.885,0.816 -1.428,0.816c1.766,-0.134 2.652,0.341 2.652,1.428c0,-1.224 -0.408,-1.97 -1.224,-2.244zm11.017,32.232c0,-0.408 -0.139,-0.679 -0.408,-0.816c0,1.09 -0.137,1.702 -0.408,1.836l0.611,0c0.135,-0.408 0.205,-0.746 0.205,-1.02zm1.223,-10.404l-0.408,-2.04l0.613,0l0.408,1.836l-0.613,0.204zm2.041,1.02c0.541,2.04 0.883,3.197 1.02,3.468c-1.225,-2.04 -1.906,-3.194 -2.039,-3.468c0,-0.271 0.066,-0.612 0.203,-1.02c0.135,-0.408 0.203,-0.679 0.203,-0.816c0.543,0.408 0.951,0.612 1.225,0.612c-0.001,0.137 -0.204,0.545 -0.612,1.224zm3.467,4.692l-0.408,0l0,1.224l0.408,0l0,-1.224z" fill="#6E7171"/>
    <path stroke="null" id="svg_9" d="m4124.72664,2885.357977c-2.041,-0.271 -3.809,0.204 -5.305,1.428c-0.273,0.545 -0.748,1.157 -1.428,1.836c-1.225,1.09 -2.518,2.11 -3.877,3.06c-1.631,1.498 -2.381,2.856 -2.242,4.08c-1.77,1.769 -5.713,5.17 -11.832,10.2c-0.139,0.137 -0.07,0.341 0.203,0.612c1.902,-0.816 3.33,-1.699 4.283,-2.652l1.43,1.428c0,0.545 -0.07,0.749 -0.205,0.612l0.816,0.204c1.494,0 3.602,-1.224 6.324,-3.672l-3.672,3.06c0.133,0.137 0.611,0.274 1.428,0.408c1.225,0 3.467,-0.883 6.732,-2.652l-0.205,1.428c-0.682,0.953 -1.701,2.11 -3.061,3.468c-1.498,0.408 -3.264,1.632 -5.303,3.672c0.541,0.274 1.428,0.137 2.652,-0.408c-0.408,0.408 -1.057,0.918 -1.939,1.53c-0.885,0.612 -1.529,1.122 -1.938,1.53l1.02,1.224c-1.906,-0.271 -2.855,0.204 -2.855,1.428l0,1.428c-0.273,0 -1.225,0.408 -2.855,1.224c0,0.408 0.475,0.612 1.428,0.612c-2.992,1.906 -6.189,3.876 -9.588,5.916l-1.225,1.225c0,0.273 0.135,0.816 0.408,1.632c0.135,0.545 0.066,1.091 -0.203,1.632l-5.713,4.08c-2.447,1.903 -4.42,2.856 -5.916,2.856c-3.4,-0.138 -5.1,0.541 -5.1,2.04l-5.508,-0.204c-0.408,0.134 -0.682,0.031 -0.816,-0.307c-0.137,-0.341 -0.342,-0.58 -0.611,-0.714c-0.545,0 -3.131,0.679 -7.752,2.04c-2.857,0.816 -5.916,1.154 -9.18,1.021c-7.891,-0.408 -15.371,-2.856 -22.441,-7.345c-0.137,-0.273 -0.408,-0.682 -0.816,-1.224c-2.584,-1.357 -3.672,-2.04 -3.264,-2.04c-0.545,0 -0.885,0.07 -1.02,0.204l0.408,-0.408l0,-0.204l-0.611,0l-1.021,-1.02c-0.682,-0.816 -1.361,-1.154 -2.039,-1.021c0.271,0.545 0.816,1.428 1.631,2.652c-1.09,-1.087 -2.518,-2.786 -4.283,-5.1c0,-0.679 -0.137,-1.632 -0.408,-2.856c-1.09,-2.311 -2.518,-5.983 -4.283,-11.016c-0.684,0.137 -1.021,0.478 -1.021,1.02c0,0.816 0.068,1.157 0.205,1.02c0,-0.542 -0.273,-1.087 -0.816,-1.632l-0.611,0.612c-0.816,4.762 -2.855,12.24 -6.121,22.44c0.271,0.407 -0.34,0.611 -1.836,0.611c-0.273,0 -0.748,-0.273 -1.428,-0.815c-0.682,-0.545 -1.293,-0.816 -1.836,-0.816c0,-0.408 0.271,-0.886 0.816,-1.428c-0.137,-0.271 -0.887,-0.746 -2.244,-1.429c-1.361,1.767 -3.605,4.692 -6.732,8.772l-1.428,-1.632c0.949,-1.224 1.428,-1.973 1.428,-2.244c0,-0.545 -0.479,-1.428 -1.428,-2.652c-0.545,0.271 -1.701,1.699 -3.469,4.284c-0.814,-1.224 -1.768,-2.722 -2.855,-4.487c-0.137,0.134 -1.631,1.224 -4.488,3.264c-1.223,-2.448 -1.836,-4.146 -1.836,-5.1c0.135,-0.95 0.613,-1.766 1.428,-2.448c-0.137,-0.271 -0.406,-0.612 -0.814,-1.021l-1.021,0c-0.406,0 -0.611,0.204 -0.611,0.612l0,-1.429c0.816,-0.541 1.633,-1.494 2.447,-2.855c1.225,-3.535 2.244,-9.247 3.061,-17.136c0.271,-0.408 0.543,-1.224 0.816,-2.448c0.135,-0.271 0.203,-1.562 0.203,-3.876c0,-2.174 -0.137,-3.739 -0.406,-4.692l1.836,-1.428l5.303,-46.716c2.311,-20.263 4.623,-35.7 6.936,-46.308c0.543,-2.174 2.174,-7.07 4.896,-14.688c0.271,-3.127 0.338,-0.883 0.205,6.732l-0.613,12.648c0.543,0 1.021,-0.338 1.428,-1.02c0.816,-5.03 2.652,-12.036 5.51,-21.012c0.949,0.408 2.105,1.361 3.467,2.856c0.543,-0.408 1.633,-0.542 3.264,-0.408c0.135,0 0.408,0.07 0.816,0.204c0.408,0.137 0.746,0.204 1.02,0.204c0.408,0 0.613,-0.134 0.613,-0.408c0,-0.271 0.203,-0.338 0.611,-0.204c0.271,0 0.541,0.137 0.816,0.408c0.271,0.274 0.611,0.408 1.02,0.408c1.357,0.137 2.174,-0.612 2.447,-2.244l2.244,4.896c-0.137,3.401 -0.07,5.304 0.205,5.712c0.133,1.361 0,3.672 -0.408,6.936c0.271,0.953 0.541,2.11 0.816,3.468l-8.16,64.668c-0.275,2.585 0.816,5.17 3.264,7.752c0.271,0.682 1.291,2.314 3.061,4.896c9.518,-7.615 19.176,-20.059 28.967,-37.332c0.543,0.545 1.496,1.294 2.857,2.244c-0.545,2.04 -1.158,3.672 -1.836,4.896l-0.205,1.428c0.816,0.137 1.633,-0.338 2.447,-1.428l1.633,-2.652c0.271,0.274 0.541,0.408 0.816,0.408c-0.137,2.177 -0.275,3.468 -0.408,3.876c1.086,-0.816 1.902,-1.766 2.447,-2.856l-7.547,15.096c-2.586,5.304 -5.646,9.929 -9.18,13.872c-0.408,0.408 -1.734,1.804 -3.979,4.182c-2.244,2.381 -3.367,3.707 -3.367,3.978c0,-0.408 0.613,0.682 1.836,3.264c-0.545,-0.542 -1.293,-1.358 -2.242,-2.448c-0.684,0.274 -1.43,1.224 -2.244,2.856l0.814,0.408c0.408,0.137 -0.273,0.204 -2.039,0.204c-0.682,0.274 -0.887,0.545 -0.611,0.816c-0.816,0.274 -1.906,1.294 -3.266,3.06c1.768,1.906 4.488,3.334 8.16,4.284c8.16,2.177 11.967,3.264 11.424,3.264c0.68,0 2.721,0 6.121,0l5.916,-0.204l0.611,0.816c4.488,0.274 14.893,-4.759 31.213,-15.096c-2.178,1.632 -6.461,4.488 -12.852,8.568c0,0.953 0.475,1.428 1.428,1.428l14.482,-7.956c9.385,-5.304 15.027,-7.886 16.934,-7.752c0.27,0 0.408,0.07 0.408,0.204c0,0.137 0.203,0.204 0.611,0.204c0.541,0.137 1.664,-0.102 3.365,-0.714c1.699,-0.612 2.889,-0.918 3.57,-0.918c0.27,0.139 1.427,0.547 3.468,1.226zm-121.381,-89.76l-0.816,0l-1.02,5.712l0.613,0l1.223,-5.712zm11.629,120.36l-0.816,0l0,-1.02l0.816,0l0,1.02zm2.039,0.204l-0.408,-2.04l-0.814,-0.204l0.406,2.04l0.816,0.204zm5.099,-43.248l-2.039,1.632l-0.408,-0.408l2.041,-1.632l0.406,0.408zm8.569,20.604l-0.408,-0.408l-2.855,2.448l0.408,0.612l2.855,-2.652zm-2.244,-97.512l-0.814,0l0,-1.02l0.814,0l0,1.02zm0.613,80.784l-0.613,-0.204l-0.408,-1.428l0.613,-0.204l0.408,1.836zm6.527,11.424l-0.408,-0.204l-4.08,4.08l0.408,0.408l4.08,-4.284zm-2.244,42.636l-2.039,-1.02l-0.205,0.611l2.041,1.021l0.203,-0.612zm4.283,-36.108l-1.223,0l0,-0.816l1.223,0l0,0.816zm3.877,-46.512l-3.264,4.692l-0.613,-0.408l3.266,-4.896l0.611,0.612zm-1.633,46.716l-0.203,0.612l-1.428,-0.612l0,-0.612l1.631,0.612zm16.934,43.452c-4.896,-0.682 -8.027,-1.157 -9.385,-1.428c-3.539,-0.816 -6.324,-1.973 -8.363,-3.468l1.428,0c1.766,0.134 4.283,0.815 7.547,2.04c3.264,1.224 5.779,1.902 7.549,2.04c0.816,0 1.224,0.271 1.224,0.816zm-14.892,-42.432l-0.205,0.612l-1.428,-0.612l0,-0.612l1.633,0.612zm4.691,-46.308l-1.225,1.632l-0.406,-0.612l1.02,-1.428l0.611,0.408zm1.019,-3.468l-0.814,1.632l-0.613,-0.204l0.816,-1.428l0.611,0zm0,28.356l-0.406,-0.408l-1.021,1.428l0.408,0.408l1.019,-1.428zm17.545,-20.808c-1.633,3.13 -4.217,7.752 -7.752,13.872c-2.314,2.856 -5.645,7.14 -9.996,12.852l17.748,-26.724zm-9.588,9.18l-0.611,0l-1.836,3.876l0.406,0.408l2.041,-4.284zm53.04,31.008l-0.203,-0.612l-2.652,1.224l0,0.612l2.855,-1.224zm17.748,-8.568l-1.223,-0.204l0,-0.612l1.223,0.204l0,0.612z" fill="#6E7171"/>
    <path stroke="null" id="svg_10" d="m4142.06864,2833.949977c-1.498,0.682 -3.061,1.769 -4.693,3.264c-0.137,-0.271 -0.408,-0.408 -0.814,-0.408c-1.633,0 -2.789,1.565 -3.469,4.692c2.855,-1.495 4.826,-2.856 5.916,-4.08c-0.682,0.545 -1.02,1.09 -1.02,1.632c0,0.408 0.27,0.816 0.814,1.224c-0.406,0.137 -2.789,1.294 -7.139,3.468l0.203,0.408l-1.02,-0.204l-0.611,0.612c1.494,0.408 2.719,0.612 3.672,0.612c-0.275,0.137 -0.887,0.612 -1.836,1.428c-0.684,-0.271 -1.703,0.035 -3.061,0.918c-1.361,0.886 -1.973,1.667 -1.836,2.346c-0.137,0.137 -1.156,0.953 -3.061,2.448c-0.137,0.274 -0.07,0.408 0.205,0.408c-0.137,0 -0.408,0.07 -0.816,0.204c-0.408,0.137 -0.682,0.204 -0.816,0.204c0.135,0 0.408,-0.134 0.816,-0.408c-1.361,-0.271 -2.652,0 -3.877,0.816l-1.836,1.224l-1.223,0c-0.139,0.137 -0.205,0.274 -0.205,0.408c0,0.274 0.135,0.545 0.408,0.816c-0.137,-0.134 -0.342,-0.067 -0.611,0.204c-0.275,0.274 -0.545,0.408 -0.816,0.408c-0.273,0 -0.273,-0.134 0,-0.408c0.135,-0.271 0,-0.408 -0.408,-0.408c-0.816,0 -2.855,0.816 -6.119,2.448l-4.896,2.448l-3.264,1.02c-1.361,0.682 -2.178,1.02 -2.449,1.02l-0.814,0.612c-2.314,0.545 -3.469,1.361 -3.469,2.448c0,1.09 0.816,2.448 2.447,4.08c0.135,0.953 0.543,2.381 1.225,4.284c2.174,0.274 3.398,0.408 3.672,0.408c0.271,0 0.408,-0.067 0.408,-0.204c0,-0.134 0.133,-0.204 0.408,-0.204c0.271,0 0.576,0.172 0.918,0.51c0.338,0.341 0.645,0.51 0.918,0.51c1.086,0 2.617,0.204 4.59,0.612c1.971,0.408 3.434,0.612 4.387,0.612c1.902,0.137 3.533,0.478 4.895,1.02l0.816,-0.816c2.174,0.545 5.576,2.244 10.201,5.1l-0.408,0.204c0.27,0.816 1.02,1.906 2.244,3.264l1.02,0c0.408,0 0.541,-0.067 0.408,-0.204l2.447,2.652c-0.137,0.137 -0.238,0.376 -0.307,0.714c-0.068,0.341 -0.172,0.58 -0.305,0.714c4.488,2.993 6.732,4.829 6.732,5.508c0,0.545 -0.104,1.396 -0.307,2.55c-0.205,1.157 -0.307,2.008 -0.307,2.55c0,0.816 0.066,1.769 0.205,2.856c-0.408,-0.271 -0.75,-0.408 -1.021,-0.408c0.271,-0.679 0.408,-1.428 0.408,-2.244s-0.137,-1.766 -0.408,-2.856c-0.953,5.578 -1.768,9.658 -2.447,12.24c-1.361,4.896 -3.334,8.976 -5.916,12.24c-0.137,0.274 -0.479,0.816 -1.02,1.632l0.408,-0.612l-0.613,-0.612c-0.408,0.545 -1.02,1.224 -1.836,2.04c0.135,0.137 0.338,0.274 0.613,0.408l1.02,-0.612c-0.137,0.682 -0.545,1.498 -1.225,2.448c-1.09,0.545 -2.652,1.499 -4.691,2.856c-0.545,-1.225 -1.158,-1.836 -1.836,-1.836c-0.137,0.137 -1.158,0.479 -3.061,1.02c-0.273,0.408 -0.137,0.612 0.408,0.612c-0.682,1.361 -1.564,2.04 -2.652,2.04c-0.273,0 -0.408,-0.066 -0.408,-0.204c0,-0.134 -0.137,-0.204 -0.408,-0.204c-0.273,0 -0.646,0.172 -1.121,0.51c-0.479,0.342 -0.852,0.511 -1.123,0.511c-0.137,-0.271 -0.406,-0.612 -0.814,-1.021c-0.137,0.137 -0.342,0.307 -0.613,0.51c-0.273,0.205 -0.477,0.377 -0.611,0.511c0.68,0 1.154,0.137 1.428,0.407c-0.408,0 -1.055,-0.066 -1.938,-0.203c-0.887,-0.135 -1.529,-0.204 -1.938,-0.204c0.408,0 0.746,-0.134 1.02,-0.408c-0.408,-0.408 -0.682,-0.612 -0.816,-0.612c-0.545,0 -1.02,0.204 -1.428,0.612l1.02,1.224c-0.273,-0.271 -0.545,-0.408 -0.816,-0.408l-0.408,0.613c0.408,0.407 0.746,0.611 1.021,0.611c-4.08,1.357 -5.646,2.04 -4.693,2.04l-1.223,-0.408c-0.275,0 -0.918,0.373 -1.939,1.122c-1.02,0.746 -1.666,1.122 -1.938,1.122c-0.682,0 -1.701,0.067 -3.059,0.204c-1.361,0.134 -2.383,0.204 -3.061,0.204c-0.275,0 -0.816,-0.408 -1.633,-1.225c-0.137,0.271 -0.07,0.612 0.205,1.021c-1.225,0.408 -2.928,0.883 -5.102,1.428c-9.791,1.225 -16.727,1.836 -20.807,1.836l-2.041,0c-0.816,0 -2.447,-0.478 -4.895,-1.428c-0.139,0 -0.342,-0.07 -0.613,-0.204l-1.02,0c-0.408,0 -0.545,0.103 -0.408,0.306c0.135,0.204 0.066,0.307 -0.203,0.307c-0.275,0 -0.613,-0.138 -1.021,-0.408c-0.408,-0.137 -0.885,-0.137 -1.428,0c0.68,0.679 1.291,1.02 1.836,1.02l-0.816,0c-0.682,0.135 -1.156,0.204 -1.428,0.204c-0.273,0 -0.646,-0.238 -1.121,-0.714c-0.479,-0.478 -0.918,-0.714 -1.326,-0.714c-0.682,0 -1.02,0.338 -1.02,1.021l-1.428,-0.612c-0.953,-0.408 -1.43,-0.749 -1.43,-1.021c0,-0.137 0.068,-0.273 0.205,-0.407c-0.137,-0.274 -0.545,-0.408 -1.225,-0.408l-0.816,0c-0.133,0.134 -0.338,0.204 -0.611,0.204c0.408,0 -2.039,-0.749 -7.344,-2.244c-1.633,-0.545 -8.568,-1.77 -20.809,-3.672c0.408,0 0.613,-0.271 0.613,-0.816c3.809,1.361 6.664,2.04 8.566,2.04c0.684,0 1.158,-0.134 1.43,-0.407c-2.582,-1.088 -4.352,-1.633 -5.305,-1.633c-0.271,0 -0.439,0.07 -0.51,0.204c-0.068,0.138 -0.236,0.204 -0.51,0.204c-0.135,-0.271 -0.613,-0.612 -1.428,-1.02c-2.041,-1.088 -3.943,-1.633 -5.713,-1.633c0,-0.271 0.07,-0.541 0.203,-0.816c-1.357,-1.086 -3.193,-2.718 -5.508,-4.896c-0.133,-0.408 0,-1.428 0.408,-3.06c-0.271,-0.134 -0.611,-0.612 -1.02,-1.428l1.225,0c-0.135,0 0,0.204 0.408,0.612l0.611,-0.612c-0.408,-0.134 -1.563,-0.816 -3.469,-2.04c-0.133,-0.408 -0.541,-1.02 -1.223,-1.836c0.406,-0.95 1.156,-1.699 2.244,-2.244c0,-0.408 -0.477,-0.612 -1.43,-0.612c0.408,-0.816 1.361,-1.358 2.857,-1.632c-0.135,-1.358 0,-2.174 0.408,-2.448c1.631,0.408 4.217,0.886 7.752,1.428l0.611,0.612c0.408,0 1.09,0.274 2.039,0.816c0.275,-0.271 0.408,-0.679 0.408,-1.224c2.314,1.224 4.014,1.836 5.102,1.836c0.682,0 1.02,-0.475 1.02,-1.428c0.137,0.274 0.408,0.408 0.816,0.408c0.545,0 0.814,-0.271 0.814,-0.816c0.684,0.408 1.566,0.886 2.652,1.428c4.08,0.816 7.006,1.224 8.771,1.224c0.275,0 0.479,-0.134 0.613,-0.408c0.137,-0.271 0.34,-0.408 0.611,-0.408c0.273,0 0.51,0.239 0.715,0.714c0.203,0.478 0.443,0.714 0.713,0.714c0.816,0 2.008,0.172 3.57,0.51c1.563,0.341 2.754,0.51 3.57,0.51c5.438,0 11.15,-0.204 17.137,-0.612c-0.139,-0.134 -0.479,-0.204 -1.021,-0.204c2.582,-0.271 6.051,-0.746 10.404,-1.428c8.977,-0.271 18.902,-1.766 29.785,-4.488c0.541,-0.408 0.814,-0.679 0.814,-0.816c1.359,-0.134 2.787,-0.746 4.285,-1.836c0,-0.816 -0.275,-1.224 -0.816,-1.224l-0.816,0l1.225,-0.612c-0.273,-0.271 -0.75,-0.408 -1.428,-0.408c0.816,-0.134 2.855,-1.154 6.119,-3.06l-7.955,-1.836c1.631,0.545 2.922,0.816 3.875,0.816l5.1,0l0,-1.428c-4.486,-0.542 -9.588,-1.495 -15.299,-2.856l-1.225,0.204c0.68,0.682 1.02,1.09 1.02,1.224c-1.359,-0.542 -2.518,-0.816 -3.467,-0.816c0.133,0 0.338,-0.134 0.611,-0.408c-0.273,-0.408 -0.816,-0.612 -1.631,-0.612c-0.684,0 -1.225,0.137 -1.633,0.408c-0.273,0.137 -0.137,0.682 0.408,1.632c-0.682,-0.134 -2.789,-1.428 -6.324,-3.876c-0.408,0.408 -0.479,0.749 -0.205,1.02c-0.682,-0.408 -1.359,-0.612 -2.039,-0.612c-1.361,0 -2.244,1.294 -2.652,3.876c-0.816,-0.408 -1.631,-0.612 -2.447,-0.612c-0.275,0 -0.715,0.07 -1.326,0.204c-0.611,0.137 -1.055,0.204 -1.326,0.204c-0.273,0.274 -0.203,0.816 0.203,1.632c-1.631,-0.134 -2.926,0.137 -3.875,0.816c0.271,-0.816 0.066,-1.766 -0.611,-2.856c-0.816,0.137 -1.703,1.428 -2.652,3.876c0.133,-0.95 0.066,-1.632 -0.205,-2.04l-1.02,0c-0.137,0.408 -0.203,0.816 -0.203,1.224c0,0.408 0.066,0.816 0.203,1.224c-0.545,-0.134 -1.156,0 -1.836,0.408c-0.137,-0.679 -0.408,-1.562 -0.816,-2.652c-0.545,0.682 -1.428,1.294 -2.652,1.836c0.271,-0.542 0.816,-1.087 1.633,-1.632c0.135,-1.087 0.408,-2.244 0.816,-3.468l-0.205,-1.632c-0.273,0.274 -0.408,0.545 -0.408,0.816c0,0.137 0.068,0.274 0.205,0.408c-0.273,0.137 -0.611,0.408 -1.02,0.816c-0.684,-0.542 -0.953,-1.224 -0.816,-2.04c0.133,-1.087 0.133,-1.97 0,-2.652c-1.906,0.816 -2.723,2.652 -2.449,5.508c0,-0.134 -0.102,-0.271 -0.305,-0.408c-0.205,-0.134 -0.307,-0.338 -0.307,-0.612c0,-0.816 0.949,-2.856 2.855,-6.12l-0.203,-1.632c-0.408,0 -0.816,0.545 -1.225,1.632c-0.137,-0.271 -0.545,-0.746 -1.223,-1.428c-0.953,0.408 -1.43,1.09 -1.43,2.04c-0.406,-0.408 -0.748,-0.612 -1.02,-0.612l-0.611,0c-0.137,0.137 -0.273,0.204 -0.408,0.204c1.766,-2.174 2.652,-3.672 2.652,-4.488c0,-0.408 -0.102,-0.679 -0.307,-0.816c-0.203,-0.134 -0.307,-0.338 -0.307,-0.612l-0.814,0c-1.09,0 -1.975,0.682 -2.652,2.04c-0.137,0 -0.443,-0.134 -0.918,-0.408c-0.479,-0.271 -0.852,-0.408 -1.123,-0.408c0.408,-3.806 4.215,-12.444 11.424,-25.908c2.721,-2.856 5.916,-7.003 9.59,-12.444l0,1.428c1.494,-1.495 3.672,-3.468 6.527,-5.916c2.174,-1.357 3.602,-2.311 4.283,-2.856c1.904,-1.495 2.924,-2.719 3.061,-3.672c2.039,0 5.846,-1.562 11.424,-4.692l7.957,-4.488c3.941,-1.357 6.186,-2.719 6.73,-4.08c0.135,0.137 0.408,0.204 0.816,0.204c0.68,0 2.174,-0.746 4.488,-2.244c-0.408,-0.408 -0.75,-0.612 -1.02,-0.612l0.816,-1.02c0.133,0 0.234,0.239 0.305,0.714c0.066,0.478 0.307,0.714 0.715,0.714s0.816,-0.204 1.223,-0.612c-0.273,0 0.068,0.478 1.021,1.428c0.678,-0.271 1.699,-0.746 3.059,-1.428l0,2.448c-0.545,-0.134 -0.953,-0.134 -1.223,0l0,0.612l-0.603,-0.206c-0.408,-0.134 -0.682,-0.204 -0.814,-0.204l-0.205,2.04c2.041,0 3.264,-0.816 3.672,-2.448c3.398,-1.632 5.508,-2.244 6.324,-1.836c0,0.274 -0.203,0.682 -0.611,1.224c0.133,0.137 0.408,0.204 0.816,0.204c0.27,-0.679 0.406,-1.562 0.406,-2.652l1.836,1.224c0.271,1.361 0.408,2.244 0.408,2.652c0,0.137 -0.238,0.51 -0.713,1.122c-0.479,0.612 -0.715,1.122 -0.715,1.53c0,0.274 0.205,0.886 0.613,1.836c0.133,-0.271 0.203,-0.746 0.203,-1.428c0.135,0 0.338,-0.134 0.611,-0.408c0.271,-0.271 0.613,-0.408 1.021,-0.408c0.27,0 0.338,0.137 0.203,0.408c-0.137,0.274 -0.07,0.408 0.203,0.408c0.408,0 0.781,-0.134 1.123,-0.408c0.338,-0.271 0.576,-0.408 0.715,-0.408c0,0.274 -0.07,0.749 -0.205,1.428l0,1.224c0.816,0.953 1.225,1.769 1.225,2.448c-0.137,0.408 -0.682,2.448 -1.633,6.12c0,-0.816 0.135,-1.291 0.408,-1.428l0,-1.224c-0.137,-0.271 -0.342,-0.408 -0.611,-0.408l-1.021,3.06c0.135,0.137 0.477,0.204 1.021,0.204c0.541,0 1.02,-0.338 1.428,-1.02c0.409,0.274 0.679,0.408 0.818,0.408zm-134.641,85.884l-1.02,0l0,-0.612l1.02,0l0,0.612zm6.527,10.812l-1.836,-0.407l0,-0.612l1.836,0.407l0,0.612zm13.873,1.02l0,-0.612l-1.225,0l0,0.612l1.225,0zm0.408,-3.263l0,-0.613l-1.021,0l0,0.613l1.021,0zm1.02,1.427l0,-0.612l-0.816,0l0,0.612l0.816,0zm1.428,0.409l0,-0.612l-1.225,0l0,0.612l1.225,0zm-0.203,2.244l0,-0.613l-1.021,0l0,0.613l1.021,0zm0.203,-3.265l0,-0.612l-0.816,0l0,0.612l0.816,0zm1.836,0.408l0,-0.612l-1.225,0l0,0.612l1.225,0zm1.836,1.428l0,-0.612l-2.447,-0.408l0,0.612l2.447,0.408zm-0.409,-7.344l0,-0.612l-0.816,0l0,0.612l0.816,0zm0.817,6.12l0,-0.612l-1.633,0l0,0.612l1.633,0zm0.203,3.672l0,-0.612l-1.836,-0.407l0,0.611l1.836,0.408zm1.836,-1.836l0,-0.612l-2.242,-0.408l0,0.612l2.242,0.408zm1.225,-7.14l0,-0.612l-1.02,0l0,0.612l1.02,0zm1.019,7.14l0,-0.612l-1.428,0l0,0.612l1.428,0zm1.43,-6.732l0,-0.612l-2.041,0l0,0.612l2.041,0zm0.406,7.14l0,-0.612l-1.02,0l0,0.612l1.02,0zm0,2.04l0,-0.611l-1.02,0l0,0.611l1.02,0zm1.43,0l0,-0.611l-1.021,0l0,0.611l1.021,0zm5.711,-2.448l0,-0.612l-5.916,-0.408l0,0.612l5.916,0.408zm-0.409,1.02l0,-0.611l-5.508,-0.205l0,0.613l5.508,0.203zm-3.263,1.836l0,-0.611l-2.039,0l0,0.611l2.039,0zm4.691,0.816l0,-0.612l-3.875,-0.815l0,0.611l3.875,0.816zm1.022,-0.408l0,-0.612l-0.816,0l0,0.612l0.816,0zm1.222,3.06l-1.631,-0.816l-0.205,0.612l1.633,0.815l0.203,-0.611zm1.836,-5.916l0,-0.612l-1.836,0l0,0.612l1.836,0zm2.449,-4.08l0,-0.612l-3.061,0l0,0.612l3.061,0zm0,7.344l0,-0.612l-2.449,0l0,0.612l2.449,0zm38.963,0.612c-0.545,0 -1.396,-0.07 -2.549,-0.204c-1.158,-0.138 -2.008,-0.204 -2.551,-0.204c-0.273,0 -0.545,0.169 -0.816,0.51c-0.273,0.338 -0.545,0.51 -0.816,0.51c-0.273,0 -0.545,-0.102 -0.814,-0.306c-0.275,-0.204 -0.479,-0.306 -0.613,-0.306c-1.631,0 -3.197,0.338 -4.691,1.02l-0.816,-0.816c-1.09,0.135 -2.721,0.542 -4.895,1.225c0.27,-0.274 0.406,-0.545 0.406,-0.816l-2.447,0c0,0.271 -0.07,0.542 -0.203,0.816c-0.408,-0.408 -0.816,-0.612 -1.225,-0.612c0.408,0.408 0.541,0.679 0.408,0.816c-1.09,-0.274 -2.041,-0.408 -2.855,-0.408c0.678,0 0.814,0.134 0.406,0.408l-1.02,0c-0.408,-0.408 -1.225,-0.612 -2.447,-0.612l-5.1,0c-0.408,0.134 -1.836,0.204 -4.285,0.204l-2.855,0c0.541,0 1.393,0.306 2.551,0.918c1.152,0.612 1.867,0.918 2.141,0.918c0.271,0 0.68,-0.102 1.225,-0.306c0.541,-0.204 0.949,-0.307 1.225,-0.307c0.27,0 0.27,0.134 0,0.408c-0.139,0.134 -0.07,0.204 0.203,0.204c0.541,0 1.291,-0.102 2.244,-0.306c0.949,-0.204 1.633,-0.307 2.039,-0.307c0.543,0.408 0.885,0.612 1.021,0.612c3.396,0 5.779,-0.137 7.139,-0.408c0,-0.682 0.068,-1.09 0.205,-1.224c0.133,0 0.203,0.169 0.203,0.51c0,0.338 0.205,0.51 0.613,0.51c0.541,0 0.744,-0.137 0.611,-0.407l0.611,0.815c2.857,0 5.576,-0.408 8.16,-1.224c-0.273,0.271 -0.07,0.408 0.613,0.408c1.223,0 2.58,-0.408 4.08,-1.225c0,0.271 0.475,-0.07 1.428,-1.02l0.203,0.611c0.135,0.408 0.408,0.612 0.816,0.612c0.271,0 0.713,-0.172 1.326,-0.51c0.612,-0.338 0.985,-0.507 1.121,-0.507zm-37.535,-3.876l0,-0.612l-2.041,0l0,0.612l2.041,0zm0.817,3.06l-1.43,-0.408l0,0.408l1.225,0.408l0.205,-0.408zm2.447,-23.256l-1.02,0l0,-0.612l1.02,0l0,0.612zm0.203,-46.716l-0.611,1.428l-0.408,-0.204l0.408,-1.224l0.611,0zm1.021,-2.856l-0.816,2.448l-0.611,-0.204l0.814,-2.244l0.613,0zm0,20.808l0,-1.02l-0.613,0l0,1.02l0.613,0zm2.04,52.224l0,-0.612l-2.039,0l0,0.612l2.039,0zm0,-50.388l-0.203,-0.612l-0.816,0.408l0,0.612l1.019,-0.408zm5.916,47.533l0,-0.613l-5.1,0l0,0.613l5.1,0zm-3.875,2.855l0,-0.612l-1.021,0l0,0.612l1.021,0zm1.427,0l0,-0.612l-1.02,0l0,0.612l1.02,0zm1.836,-22.032l0,-0.612l-2.449,0l0,0.612l2.449,0zm0,22.032l0,-0.612l-1.02,0l0,0.612l1.02,0zm3.875,-22.032l0,-0.612l-3.467,-0.204l0,0.612l3.467,0.204zm-1.428,22.032l0,-0.612l-2.039,0l0,0.612l2.039,0zm-1.019,1.02l0,-0.611l-1.02,0l0,0.611l1.02,0zm0.816,5.916l-0.205,0.612l-1.02,-0.612l0.205,-0.407l1.02,0.407zm2.448,-0.816l-2.039,0l0,-0.816l2.039,0l0,0.816zm-0.817,-6.12l0,-0.612l-0.814,0l0,0.612l0.814,0zm1.633,-90.78l-1.225,1.224l-0.408,-0.408l1.225,-1.224l0.408,0.408zm1.02,91.8l0,-0.611l-2.447,0l0,0.611l2.447,0zm-0.409,-1.02l0,-0.612l-1.631,0l0,0.612l1.631,0zm3.469,-3.264l0,-0.612l-1.225,0l0,0.612l1.225,0zm1.225,9.384c-0.816,0 -1.361,0.134 -1.633,0.408l0.816,-1.021c0.133,0.135 0.408,0.339 0.817,0.613zm-0.614,-10.608l-0.611,-0.408l-0.205,0.408l0.408,0.408l0.408,-0.408zm8.772,9.18c-1.904,0.408 -3.672,0.612 -5.303,0.612c2.582,-0.815 3.672,-1.224 3.264,-1.224c0.68,0 1.357,0.204 2.039,0.612zm-2.447,-4.488l0,-0.612l-1.428,0l0,0.612l1.428,0zm0.408,-1.02l0,-0.611l-1.428,0l0,0.611l1.428,0zm1.019,-3.876l0,-0.612l-1.428,0l0,0.612l1.428,0zm5.1,8.568l-1.836,0l0,-0.612l1.836,0l0,0.612zm1.43,-0.612l-1.43,0l0,-0.612l1.43,0l0,0.612zm2.855,-3.264l-2.652,0c0.949,0 1.699,0.271 2.244,0.815c0,-0.136 0.135,-0.407 0.408,-0.815zm3.467,1.02l0,-0.611l-0.814,0l0,0.611l0.814,0zm2.244,-2.448l0,-0.612l-1.02,0l0,0.612l1.02,0zm0.613,-1.224l0,-0.611l-1.225,0l0,0.611l1.225,0zm0.203,1.836l-0.203,-0.611l-1.225,0.407l0,0.612l1.428,-0.408zm1.225,-2.039l0,-0.613l-1.225,0l0,0.613l1.225,0zm0.816,-35.905l-1.021,0l0,-0.612l1.021,0l0,0.612zm3.264,5.508l-1.02,0.408l0,-0.408l0.814,-0.408l0.206,0.408zm1.428,32.64l-1.225,0.816l-0.203,-0.408l1.225,-0.816l0.203,0.408zm2.039,-3.672l0,-0.612l-1.223,0l0,0.612l1.223,0zm2.857,1.429l-0.816,0l0,-0.613l0.816,0l0,0.613zm3.672,-9.385l0,-0.612l-1.02,0l0,0.612l1.02,0zm0,5.916l-0.205,-0.408l-0.814,0.408l0,0.408l1.019,-0.408zm2.653,-7.14l-0.205,-0.408l-2.244,0.612l0,0.612l2.449,-0.816zm-1.022,13.26l-1.223,0.408l0,-0.408l1.02,-0.408l0.203,0.408zm7.346,-53.448c-0.547,-1.087 -3.197,-2.311 -7.957,-3.672c-0.137,0.137 -0.203,0.749 -0.203,1.836c2.988,0.274 5.711,0.886 8.16,1.836zm-7.141,42.432l0,-0.612l-1.02,0l0,0.612l1.02,0zm7.955,0.408c-1.631,0.137 -2.926,1.157 -3.875,3.06c-0.137,-0.271 -0.408,-0.408 -0.816,-0.408c0,0.273 0.135,0.682 0.408,1.225c2.039,-0.952 3.469,-2.245 4.283,-3.877zm1.836,-74.052l-4.283,1.836l0,-0.408l4.08,-2.04l0.203,0.612zm-1.836,32.232l-2.039,-0.816l0,0.612l1.836,0.612l0.203,-0.408zm0.817,2.856l-1.225,-1.836l-0.406,0.408l1.223,1.632l0.408,-0.204zm-0.612,46.512l-0.816,0l0,-0.612l0.816,0l0,0.612zm3.264,-46.512c-1.225,0.682 -1.77,1.224 -1.633,1.632c0.543,0.545 0.951,0.816 1.225,0.816c0,-0.271 0.066,-0.679 0.203,-1.224c0.135,-0.542 0.205,-0.95 0.205,-1.224zm-0.611,-35.292l-1.021,0l0,-0.612l1.021,0l0,0.612zm1.427,72.216l-1.633,1.632l-0.203,-0.408l1.631,-1.632l0.205,0.408zm0,-95.064l-0.205,-0.408l-1.223,0.816l0.203,0.408l1.225,-0.816zm0,20.196l-1.021,0.816l-0.406,-0.612l1.223,-0.816l0.204,0.612zm1.428,-5.712l-1.428,0l-0.613,0.816c0.817,0 1.496,-0.271 2.041,-0.816zm0.408,46.104c-0.545,-0.408 -1.225,-1.087 -2.041,-2.04c0.135,0.274 0.205,0.545 0.205,0.816c0,0.408 -0.137,0.749 -0.408,1.02c1.086,1.09 1.631,1.565 1.631,1.428c0,-0.542 0.205,-0.95 0.613,-1.224zm2.039,-63.648c-0.682,-0.134 -1.428,-0.542 -2.244,-1.224c-0.273,-0.271 -0.479,-0.408 -0.611,-0.408l0,1.224c-0.137,0.545 -0.205,0.886 -0.205,1.02c0.135,-0.134 0.271,-0.338 0.408,-0.612c0.135,-0.271 0.271,-0.475 0.408,-0.612c0.271,0.816 0.135,1.565 -0.408,2.244l-0.814,1.02c1.902,-0.271 3.058,-1.154 3.466,-2.652zm-1.836,19.992l-1.225,0l0,-0.612l1.225,0l0,0.612zm1.633,-0.816l-1.02,0.612l0,-0.612l0.814,-0.408l0.206,0.408zm0.409,76.092l-0.613,0l-0.408,-0.816l0.613,-0.204l0.408,1.02zm1.019,-92.208l-0.408,-0.408l-0.816,0.816l0.408,0.408l0.816,-0.816zm0.408,7.14l0,-1.224l-0.613,0l0,1.224l0.613,0zm2.039,-5.508l0,-4.08c-0.273,-0.271 -0.748,-0.408 -1.428,-0.408c0,0.274 -0.137,0.612 -0.408,1.02c-0.273,0.408 -0.408,0.816 -0.408,1.224l0.613,0.612l0,2.856c0.409,-0.271 0.95,-0.679 1.631,-1.224zm-0.611,2.04l-0.205,-0.612l-1.223,0.408l0,0.612l1.428,-0.408zm0.408,72.42l-0.613,0l0,-1.02l0.613,0l0,1.02zm2.244,-96.288l-0.816,0.816l-1.836,0l0,-2.448l1.428,-1.428c0.271,0.137 0.679,1.157 1.224,3.06zm-1.224,97.308l-0.611,0l-0.408,-0.816l0.611,-0.204l0.408,1.02zm16.728,-86.088c0,0.953 -0.682,2.177 -2.041,3.672l-2.447,2.04c-0.273,-0.271 -0.887,-1.087 -1.836,-2.448c-0.408,0.274 -1.428,0.07 -3.061,-0.612c0.816,-0.542 1.291,-1.087 1.428,-1.632c-2.447,-0.679 -4.15,-2.786 -5.1,-6.324l-1.428,1.428l-2.447,-2.448c1.086,-1.766 1.902,-2.652 2.447,-2.652l0.611,0.816c0.135,-0.816 0.477,-1.903 1.021,-3.264c1.631,-2.448 3.672,-3.672 6.119,-3.672c0.271,0 0.949,0.204 2.041,0.612c1.086,0.408 1.902,0.612 2.447,0.612c0.133,0.545 0.066,1.157 -0.205,1.836c1.633,1.632 2.449,2.926 2.449,3.876c0,0.545 -0.816,2.244 -2.449,5.1c1.635,0.953 2.451,1.973 2.451,3.06zm-14.281,90.984l-0.406,1.428l-0.408,-0.204l0.408,-1.224l0.406,0zm30.193,-81.192c-1.906,1.361 -4.83,3.264 -8.773,5.712c-1.09,0.953 -2.584,2.244 -4.486,3.876c-0.139,0 -0.408,-0.134 -0.816,-0.408c2.038,-3.127 6.732,-6.187 14.075,-9.18zm1.428,-5.304c0,0.274 -0.07,0.612 -0.205,1.02c-0.137,0.408 -0.203,0.749 -0.203,1.02c-0.682,-0.134 -1.361,0 -2.039,0.408c-0.547,-0.679 -0.816,-1.087 -0.816,-1.224c0,-0.271 0.133,-0.781 0.408,-1.53c0.27,-0.746 0.408,-1.256 0.408,-1.53c0.541,-0.134 1.357,-0.134 2.447,0l0,1.836z" fill="#6E7171"/>
   </g>
  </g>
 </g>
</svg>